HIERARCHY
ROOT pelvis
{
	OFFSET 0.000000 0.000000 0.000000
	CHANNELS 6 Xposition Yposition Zposition Zrotation Xrotation Yrotation
	JOINT lfemur
	{
		OFFSET 11.446000 0.000000 0.000000
		CHANNELS 3 Zrotation Xrotation Yrotation
		JOINT ltibia
		{
			OFFSET 0.000000 -42.030400 0.000000
			CHANNELS 3 Zrotation Xrotation Yrotation
			JOINT lfoot
			{
				OFFSET 0.000000 -39.930200 0.000000
				CHANNELS 3 Zrotation Xrotation Yrotation
				JOINT ltoes
				{
					OFFSET 0.000000 0.000000 11.775800
					CHANNELS 3 Zrotation Xrotation Yrotation
					End Site
					{
					    OFFSET 0.000000 0.000000 5.000000
					}
				}
			}
		}
	}
	JOINT rfemur
	{
		OFFSET -11.446000 0.000000 0.000000
		CHANNELS 3 Zrotation Xrotation Yrotation
		JOINT rtibia
		{
			OFFSET 0.000000 -42.030400 0.000000
			CHANNELS 3 Zrotation Xrotation Yrotation
			JOINT rfoot
			{
				OFFSET 0.000000 -39.930200 0.000000
				CHANNELS 3 Zrotation Xrotation Yrotation
				JOINT rtoes
				{
					OFFSET 0.000000 0.000000 11.775800
					CHANNELS 3 Zrotation Xrotation Yrotation
					End Site
					{
					    OFFSET 0.000000 0.000000 5.000000
					}
				}
			}
		}
	}
	JOINT thorax
	{
		OFFSET 0.000000 11.255600 -5.000000
		CHANNELS 3 Zrotation Xrotation Yrotation
		JOINT head
		{
			OFFSET 0.000000 43.799300 0.000000
			CHANNELS 3 Zrotation Xrotation Yrotation
			End Site
			{
			    OFFSET 0.000000 5.000000 0.000000
			}
		}
		JOINT lclavicle
		{
			OFFSET 0.000000 39.863000 0.000000
			CHANNELS 3 Zrotation Xrotation Yrotation
			JOINT lhumerus
			{
				OFFSET 17.380600 4.958300 0.000000
				CHANNELS 3 Zrotation Xrotation Yrotation
				JOINT lradius
				{
					OFFSET 0.000000 -27.561300 0.000000
					CHANNELS 3 Zrotation Xrotation Yrotation
					JOINT lhand
					{
						OFFSET 0.000000 -26.933000 0.000000
						CHANNELS 3 Zrotation Xrotation Yrotation
						End Site
						{
						    OFFSET 0.000000 -5.000000 0.000000
						}
					}
				}
			}
		}
		JOINT rclavicle
		{
			OFFSET 0.000000 39.863000 0.000000
			CHANNELS 3 Zrotation Xrotation Yrotation
			JOINT rhumerus
			{
				OFFSET -17.380600 4.958300 0.000000
				CHANNELS 3 Zrotation Xrotation Yrotation
				JOINT rradius
				{
					OFFSET 0.000000 -27.561300 0.000000
					CHANNELS 3 Zrotation Xrotation Yrotation
					JOINT rhand
					{
						OFFSET 0.000000 -26.933000 0.000000
						CHANNELS 3 Zrotation Xrotation Yrotation
						End Site
						{
						    OFFSET 0.000000 -5.000000 0.000000
						}
					}
				}
			}
		}
	}
}
MOTION
Frames:	14
Frame Time:	0.0333333
-163.723 85.2547 -81.8473 -7.48215 2.71009 -117.591 -1.9868 -9.31858 3.66425 1.24079 62.9387 7.05591 1.30601 -1.45727 0.0568053 -3.31969e-015 -5 -1.59635e-015 3.09193 -16.1914 -0.331386 -0.746876 29.6175 -14.8357 -6.14935 5.96281 0.0931173 -5.16876e-016 -5 3.1927e-015 -1.46822 7.46988 -1.17268 3.92174 30.2617 -4.5475 9.93923e-017 9.93923e-017 3.18055e-015 14.6791 -11.0697 66.4129 5.22136 -0.0865276 -120.062 8.25585 -7.25936 -9.0277 9.93923e-017 9.93923e-017 3.18055e-015 -11.8625 -3.46216 -33.4605 12.5525 -1.73019 63.0698 -0.235045 -2.06623 9.91866 
-165.342 85.9563 -82.9227 -7.1171 2.17043 -118.116 -2.53544 -11.5046 3.75376 1.16519 57.2885 8.99287 1.12638 -1.21437 0.0444104 -2.00767e-015 -5 -4.78906e-015 2.83762 -14.4429 -0.347088 -0.539012 27.7176 -14.5229 -6.37241 5.51715 0.0773743 7.5549e-016 -5 -9.57811e-015 -1.15299 7.36885 -0.813181 2.65466 29.6071 -4.12629 -4.96962e-017 1.49089e-016 -0 14.1878 -10.1371 66.7742 4.29088 -0.107908 -119.212 7.75315 -7.67566 -9.05277 -4.96962e-017 1.49089e-016 -0 -12.5999 -4.59287 -32.5273 12.5691 -1.85347 62.9886 -0.344606 -2.41447 9.91056 
-166.829 86.4603 -83.9088 -6.6389 1.82884 -117.996 -2.81878 -13.2477 2.82007 1.17348 50.8523 10.798 0.253059 -1.10323 0.0195732 -1.72941e-015 -5 -1.59635e-015 2.67236 -12.914 -0.64129 -0.202073 26.0804 -14.6183 -6.24712 5.04184 0.0493225 -7.5549e-016 -5 9.57811e-015 -0.788069 7.03837 -0.791836 2.0194 29.0893 -4.31407 3.97569e-016 0 -3.18055e-015 13.9279 -9.36323 66.2961 3.56791 -0.0874552 -118.422 8.1658 -7.64993 -9.00711 3.97569e-016 0 -3.18055e-015 -13.1039 -5.15963 -31.8476 12.8246 -2.02841 62.5019 -0.442741 -2.31871 9.90372 
-168.22 86.8494 -84.8389 -6.34433 1.70263 -118.065 -2.77896 -14.1488 1.8245 1.04424 43.7993 10.6036 0.260235 -1.58036 0.0330037 -3.18055e-015 -5 -0 2.65041 -11.3234 -0.729147 0.0483215 24.655 -14.4748 -6.32721 4.51306 0.0229331 -0 -5 -0 -0.524693 7.16391 -0.603675 1.35576 28.4743 -4.12648 -3.97569e-016 -4.96962e-016 6.36111e-015 13.57 -9.10488 65.994 2.98566 -0.116508 -117.19 7.96496 -8.17376 -8.99205 -3.97569e-016 -4.96962e-016 6.36111e-015 -13.361 -5.76919 -31.0016 12.9946 -2.60281 61.9445 -0.260847 -2.14485 9.91593 
-169.659 87.1665 -85.6866 -6.53515 1.6163 -118.444 -3.01494 -13.5969 0.610615 0.883852 36.3466 9.6544 -0.0335353 -1.57991 0.0334835 -1.35166e-015 -5 -6.38541e-015 2.46991 -9.55983 -0.998242 0.0746463 23.7206 -13.9345 -6.32164 3.79928 -0.018154 -0 -5 -0 -0.741143 7.04519 -0.322925 1.21252 28.8281 -3.93235 -0 -9.93923e-017 -0 13.874 -9.11254 66.0748 2.73398 -0.0519565 -116.666 7.94283 -8.05953 -9.00447 -0 -9.93923e-017 -0 -13.2286 -5.92869 -30.0552 12.9592 -2.59418 61.5045 -0.740127 -2.51211 9.88335 
-170.99 87.3881 -86.4266 -6.59278 1.66676 -119.059 -3.01987 -12.6843 -0.695953 0.800076 29.9682 9.40969 -0.478126 -1.10975 0.0288432 -1.0734e-015 -5 -3.1927e-015 2.51294 -8.17412 -1.10561 -0.0207642 23.1902 -13.2713 -6.30467 3.12776 -0.057642 -8.34787e-016 -5 -9.57811e-015 -0.704548 6.38468 -0.233652 0.982883 29.8454 -3.51289 -9.93923e-017 -4.96962e-017 6.36111e-015 13.8301 -8.81327 66.1077 2.95441 -0.00332475 -116.637 8.02614 -7.90658 -9.00687 -9.93923e-017 -4.96962e-017 6.36111e-015 -13.1504 -5.82488 -29.0669 12.9917 -2.64447 61.6459 -0.591436 -2.36706 9.89342 
-172.334 87.4888 -87.1398 -6.79498 2.03011 -119.53 -2.83933 -11.4262 -1.97569 0.82726 25.6467 9.98271 -0.643585 -0.542534 0.0280252 -7.95139e-016 -5 -0 2.65387 -6.60717 -1.29658 -0.00865537 22.8507 -12.8516 -6.69246 2.13617 -0.115965 -5.56525e-016 -5 -6.38541e-015 -0.333633 6.88713 -0.183392 0.752798 30.2606 -3.33258 -3.97569e-016 9.93923e-017 -0 12.9653 -8.7899 65.5594 2.98756 -0.0874144 -116.414 7.44065 -8.01332 -9.06516 -3.97569e-016 9.93923e-017 -0 -13.4111 -6.16905 -28.3111 13.4382 -3.33589 61.6927 -0.425204 -1.87665 9.90591 
-173.744 87.5648 -87.7912 -7.19388 2.42189 -121.058 -2.64465 -9.53544 -1.47565 0.995626 22.398 10.3353 0.0990854 0.780058 0.0415624 7.5549e-016 -5 -9.57811e-015 2.67832 -5.19752 -1.42187 -0.251061 22.9873 -11.3917 -6.94715 1.18641 -0.180581 -1.03375e-015 -5 6.38541e-015 -0.419716 6.60075 0.0627161 0.111063 31.4173 -2.14985 1.98785e-016 0 -3.18055e-015 13.0217 -8.45354 65.9124 2.92835 -0.153392 -116.086 8.14117 -8.12533 -8.97317 1.98785e-016 0 -3.18055e-015 -13.5658 -5.94163 -26.4235 13.8196 -3.50663 60.7758 -0.723465 -2.40847 9.88468 
-174.926 87.4755 -88.4015 -7.08724 3.09989 -121.762 -1.92393 -8.27155 -0.750771 1.00644 20.7857 9.72774 0.563183 3.14491 0.0176334 -1.31201e-015 -5 3.1927e-015 3.33175 -4.12364 -1.1598 -0.481407 23.1393 -10.9833 -6.66972 0.329418 -0.236726 1.03375e-015 -5 -6.38541e-015 -0.0450648 6.36428 -0.172668 -0.237399 31.7623 -1.54677 2.48481e-017 3.23025e-016 3.18055e-015 13.1913 -8.31406 65.5438 2.72872 -0.0427954 -115.549 8.72122 -8.24942 -8.89926 2.48481e-017 3.23025e-016 3.18055e-015 -13.4932 -5.58114 -24.5824 14.1762 -4.45101 58.9864 -0.349096 -2.6299 9.90913 
-176.039 87.4276 -88.865 -7.04815 3.69403 -122.557 -1.54269 -6.93011 0.108364 0.984945 20.0734 10.0294 2.43869 4.77448 -0.0368026 5.16876e-016 -5 -3.1927e-015 3.68428 -3.04125 -1.04887 -0.587571 23.0702 -10.303 -6.66013 -0.365359 -0.28508 1.11305e-015 -5 1.27708e-014 0.154974 5.82605 -0.258887 -0.78809 32.3641 -0.894228 9.93923e-017 4.96962e-017 3.18055e-015 13.0286 -8.03432 65.4392 2.70692 -0.00327536 -115.315 8.25309 -8.1226 -8.96497 9.93923e-017 4.96962e-017 3.18055e-015 -13.5944 -4.81077 -22.2176 14.4968 -5.44199 56.8309 -0.313707 -2.59338 9.91205 
-177.106 87.4941 -89.2762 -7.16664 4.15163 -122.816 -1.61272 -5.98981 -0.0942961 1.20544 20.4162 10.6244 4.67378 4.34986 -0.0742734 -4.21431e-015 -5 6.38541e-015 3.79554 -1.59039 -1.07128 -0.613839 22.3956 -9.91025 -6.53941 -0.707639 -0.307174 -5.16876e-016 -5 3.1927e-015 -0.480794 5.68349 -0.614343 -0.329026 32.6364 -0.856769 -1.98785e-016 -7.95139e-016 -0 13.2388 -8.34361 65.6776 3.21053 -0.0770136 -114.066 7.64647 -8.08882 -9.03662 -1.98785e-016 -7.95139e-016 -0 -13.195 -4.61826 -22.7997 14.6054 -5.06149 57.2026 -0.326293 -2.65775 9.91234 
-178.099 87.6167 -89.5445 -7.26859 4.06109 -123.191 -2.15241 -4.87355 -0.506009 1.37653 19.6519 11.5177 4.84178 4.33355 -0.0761706 1.59028e-015 -5 -0 3.56621 -0.659062 -1.13785 -1.03502 21.9511 -9.31929 -6.28338 -1.04385 -0.32209 3.0216e-015 -5 -6.38541e-015 -1.0503 4.98856 -0.736254 0.432036 33.6172 -1.18489 3.97569e-016 -3.97569e-016 -0 13.0051 -8.90446 66.3883 4.85384 -0.0406931 -112.761 7.60887 -8.13954 -9.03934 3.97569e-016 -3.97569e-016 -0 -13.0171 -4.41513 -25.4004 14.5321 -3.38111 59.4778 -0.345381 -2.54113 9.91089 
-179.061 87.8537 -89.8196 -7.09113 3.94832 -123.738 -2.28405 -3.5387 0.0171986 1.32427 17.9536 11.5687 4.91326 4.66829 -0.0913409 3.45882e-015 -5 3.1927e-015 3.48285 0.571916 -0.99092 -1.39952 20.2711 -8.86906 -5.97004 -0.677253 -0.294307 -3.45882e-015 -5 -3.1927e-015 -1.36051 4.04486 -0.830878 0.794285 34.8198 -1.24236 7.95139e-016 1.98785e-016 -0 12.4434 -9.13319 67.6037 6.63329 -0.120066 -112.097 7.50676 -7.93854 -9.06672 7.95139e-016 1.98785e-016 -0 -12.7517 -3.8336 -28.4268 13.9037 -1.93211 62.4855 -0.420324 -2.65607 9.91116 
-179.912 88.0572 -89.9891 -6.79287 3.53809 -124.552 -2.61028 -2.19716 0.45667 1.15731 15.5798 11.9563 4.88179 5.08316 -0.107601 -1.59028e-015 -5 -0 2.96405 1.2987 -1.15632 -1.51366 18.7779 -7.78704 -5.45036 -0.272958 -0.266252 1.03375e-015 -5 -6.38541e-015 -2.02971 2.95885 -0.858224 0.487543 35.3083 -0.612169 7.95139e-016 3.97569e-016 3.18055e-015 12.6761 -9.26666 69.0886 7.7707 -0.0729954 -113.321 7.15691 -7.67141 -9.12412 7.95139e-016 3.97569e-016 3.18055e-015 -12.2324 -3.503 -30.423 13.1635 -0.75222 64.5726 -0.430914 -2.343 9.90823 
